<svg width="190" height="43" viewBox="0 0 190 43" fill="none" xmlns="http://www.w3.org/2000/svg">
<path d="M14.8204 13.4177C16.4875 13.534 17.9995 13.7569 19.3564 14.0865C20.7327 14.3966 22.0508 14.9006 23.3108 15.5985C24.5707 16.2963 25.6272 17.1589 26.4801 18.1863C27.333 19.1942 28.0115 20.493 28.5154 22.0825C29.0194 23.6526 29.2714 25.4457 29.2714 27.4616C29.2714 29.7102 28.9613 31.6971 28.341 33.4223C27.7401 35.1281 26.9259 36.5141 25.8986 37.5802C24.8906 38.6464 23.6403 39.5187 22.1477 40.1971C20.6551 40.8756 19.1044 41.3505 17.4955 41.6219C15.906 41.8739 14.142 41.9999 12.2036 41.9999H0.282227V41.7091C0.669912 41.7091 0.999445 41.68 1.27083 41.6219C1.56159 41.5637 1.80389 41.5056 1.99774 41.4474C2.21096 41.3699 2.37573 41.2245 2.49204 41.0113C2.62773 40.798 2.72465 40.6236 2.7828 40.4879C2.86034 40.3328 2.9088 40.0517 2.92818 39.6447C2.96695 39.2376 2.98634 38.8984 2.98634 38.627C3.00572 38.3556 3.01541 37.9098 3.01541 37.2895V5.01463C3.01541 4.41372 3.00572 3.97757 2.98634 3.70619C2.98634 3.43481 2.96695 3.10528 2.92818 2.71759C2.9088 2.31052 2.86034 2.02945 2.7828 1.87437C2.72465 1.7193 2.62773 1.53515 2.49204 1.32192C2.37573 1.10869 2.21096 0.973004 1.99774 0.914851C1.80389 0.837314 1.56159 0.769469 1.27083 0.711316C0.999445 0.653163 0.669912 0.624087 0.282227 0.624087V0.304246H7.55134C7.60949 0.304246 7.69672 0.304246 7.81302 0.304246C9.18931 0.304246 10.2361 0.313938 10.9533 0.333323C11.6705 0.333323 12.6591 0.381783 13.9191 0.478704C15.1984 0.556242 16.1967 0.672548 16.9139 0.827622C17.6506 0.982697 18.4841 1.225 19.4145 1.55453C20.345 1.86468 21.0525 2.25237 21.5371 2.71759C22.0217 3.16343 22.4385 3.74496 22.7874 4.46218C23.1557 5.16001 23.3398 5.96446 23.3398 6.87552C23.3398 7.96104 23.1169 8.91087 22.6711 9.72501C22.2446 10.5198 21.6243 11.1594 20.8102 11.6441C20.0154 12.1287 19.1335 12.5164 18.1642 12.8071C17.195 13.0785 16.0804 13.282 14.8204 13.4177ZM7.60949 0.68224H7.05704V13.3596H9.325C11.0696 13.3208 12.504 13.2045 13.6283 13.0107C14.772 12.7974 15.7897 12.4582 16.6813 11.993C17.5924 11.5278 18.2515 10.8784 18.6585 10.0449C19.0656 9.21133 19.2691 8.15488 19.2691 6.87552C19.2691 5.75123 19.0947 4.81109 18.7458 4.05511C18.4162 3.29912 17.9704 2.69821 17.4082 2.25237C16.8461 1.80653 16.032 1.4673 14.9658 1.23469C13.9191 1.00208 12.8626 0.856699 11.7965 0.798546C10.7304 0.721009 9.33469 0.68224 7.60949 0.68224ZM12.2036 41.6509C13.8125 41.6509 15.2469 41.5249 16.5069 41.2729C17.7862 41.021 18.9881 40.5751 20.1124 39.9354C21.2366 39.2764 22.1671 38.4235 22.9037 37.3767C23.6403 36.33 24.2218 34.9731 24.6483 33.306C25.0747 31.639 25.288 29.6908 25.288 27.4616C25.288 25.2324 25.065 23.3037 24.6192 21.6754C24.1928 20.0278 23.6112 18.6999 22.8746 17.692C22.1574 16.684 21.227 15.8795 20.0833 15.2786C18.9396 14.6777 17.7475 14.2706 16.5069 14.0574C15.2663 13.8248 13.8318 13.7085 12.2036 13.7085H7.05704V41.6509H12.2036Z" fill="white"/>
<path d="M65.3844 0.624087C64.8222 0.624087 64.3764 0.68224 64.0469 0.798546C63.7173 0.895467 63.4459 1.02147 63.2327 1.17654C63.0389 1.31223 62.9032 1.60299 62.8256 2.04883C62.7481 2.47529 62.6996 2.87267 62.6803 3.24097C62.6609 3.58988 62.6512 4.1811 62.6512 5.01463V37.2895C62.6512 37.9873 62.6512 38.4913 62.6512 38.8014C62.6706 39.1116 62.6996 39.4799 62.7384 39.9064C62.7966 40.3328 62.8741 40.6236 62.971 40.7786C63.0873 40.9337 63.2424 41.1082 63.4363 41.302C63.6495 41.4765 63.9112 41.5928 64.2213 41.6509C64.5315 41.6897 64.9192 41.7091 65.3844 41.7091V41.9999H55.8473V41.6509C57.1267 41.6509 57.9117 41.3796 58.2025 40.8368C58.5126 40.2747 58.6677 39.0922 58.6677 37.2895V26.9964H53.4921C52.6974 26.9964 52.0092 27.0643 51.4277 27.2C50.8655 27.3163 50.3906 27.4616 50.0029 27.6361C49.6153 27.8106 49.2179 28.1304 48.8108 28.5956C48.4231 29.0415 48.0936 29.4582 47.8222 29.8459C47.5702 30.2336 47.1922 30.8345 46.6882 31.6486C46.4944 31.9782 46.3393 32.2302 46.223 32.4046C45.5445 33.4902 45.0212 34.3237 44.6529 34.9052C44.2846 35.4867 43.8387 36.1458 43.3154 36.8824C42.792 37.619 42.3946 38.1618 42.1232 38.5107C41.8712 38.8402 41.5029 39.2376 41.0183 39.7028C40.5531 40.168 40.1848 40.4782 39.9134 40.6333C39.6614 40.7883 39.2737 40.9919 38.7504 41.2439C38.2464 41.4765 37.8005 41.6219 37.4128 41.68C37.0445 41.7188 36.5212 41.7769 35.8427 41.8545C35.1836 41.932 34.5537 41.9805 33.9527 41.9999C33.3712 41.9999 32.6152 41.9999 31.6848 41.9999V38.1908C31.7817 38.1908 31.9174 38.1908 32.0919 38.1908C32.9835 38.1908 33.6329 38.1908 34.04 38.1908C34.4664 38.1715 35.0286 38.1424 35.7264 38.1036C36.4242 38.0455 36.9573 37.9582 37.3256 37.8419C37.7133 37.7256 38.1882 37.5705 38.7504 37.3767C39.3125 37.1635 39.7874 36.9018 40.1751 36.5916C40.5628 36.2621 40.9989 35.8744 41.4835 35.4286C41.9681 34.9634 42.4334 34.4109 42.8792 33.7712C43.3444 33.1315 43.8193 32.4046 44.304 31.5905C45.3701 29.8265 46.3878 28.5472 47.357 27.7524C48.3456 26.9576 49.5571 26.4633 50.9915 26.2695C48.2196 26.1726 45.8256 25.8818 43.8097 25.3972C41.7937 24.8932 40.1848 24.2632 38.983 23.5072C37.8005 22.7513 36.8604 21.8014 36.1626 20.6578C35.4647 19.4947 34.9995 18.3219 34.7669 17.1395C34.5343 15.9571 34.418 14.5808 34.418 13.0107C34.418 11.5956 34.5537 10.3065 34.825 9.14348C35.1158 7.98043 35.5326 6.98214 36.0753 6.14861C36.6181 5.31509 37.2287 4.57848 37.9071 3.9388C38.605 3.27973 39.4288 2.74667 40.3786 2.3396C41.3285 1.91314 42.2686 1.56422 43.199 1.29284C44.1295 1.00208 45.1956 0.788854 46.3975 0.653164C47.5993 0.517474 48.7042 0.430244 49.7122 0.391476C50.7395 0.333323 51.8929 0.304246 53.1723 0.304246H65.3844V0.624087ZM58.6677 25.9206V0.68224H53.1723C51.9317 0.68224 50.8462 0.711316 49.9157 0.769469C49.0046 0.827622 47.9967 0.95362 46.8918 1.14746C45.8062 1.34131 44.8758 1.61269 44.1004 1.9616C43.3444 2.29114 42.5788 2.76605 41.8034 3.38635C41.0474 4.00665 40.4368 4.74325 39.9716 5.59616C39.5063 6.44907 39.1283 7.50551 38.8376 8.76549C38.5468 10.0061 38.4014 11.4211 38.4014 13.0107C38.4014 14.6002 38.5371 16.0346 38.8085 17.314C39.0993 18.5933 39.487 19.6788 39.9716 20.5705C40.4562 21.4622 41.0668 22.2376 41.8034 22.8966C42.5594 23.5557 43.3347 24.0791 44.1295 24.4668C44.9242 24.8545 45.845 25.1646 46.8918 25.3972C47.9385 25.6298 48.9465 25.7849 49.9157 25.8624C50.8849 25.94 51.9704 25.9787 53.1723 25.9787C55.5565 25.9787 57.3883 25.9594 58.6677 25.9206Z" fill="white"/>
<path d="M82.2196 13.8248C90.9038 15.0848 95.2459 19.6885 95.2459 27.6361C95.2459 29.7296 94.9357 31.6293 94.3154 33.3351C93.6951 35.0215 92.8713 36.4075 91.8439 37.493C90.8359 38.5785 89.6438 39.4896 88.2675 40.2262C86.8912 40.9434 85.4956 41.4571 84.0805 41.7672C82.6655 42.0774 81.2116 42.2325 79.7191 42.2325C76.9859 42.2325 74.7082 41.7188 72.8861 40.6914C71.0834 39.6641 69.3872 38.1521 67.7977 36.1555V29.1481H68.4374C68.5537 29.9041 68.7766 30.7764 69.1062 31.765C69.4357 32.7342 69.9203 33.8197 70.56 35.0215C71.1997 36.2233 71.9266 37.3186 72.7407 38.3072C73.5742 39.2958 74.6016 40.1293 75.8228 40.8077C77.044 41.4862 78.3428 41.8254 79.7191 41.8254C80.6107 41.8254 81.5024 41.7285 82.3941 41.5346C83.3052 41.3408 84.2938 40.9434 85.3599 40.3425C86.4454 39.7416 87.3952 38.9662 88.2094 38.0164C89.0235 37.0472 89.702 35.7097 90.2447 34.0038C90.8069 32.2786 91.0879 30.3014 91.0879 28.0722C91.0879 26.3277 90.9038 24.7381 90.5355 23.3037C90.1672 21.8499 89.702 20.6578 89.1398 19.7273C88.5777 18.7775 87.8992 17.944 87.1045 17.2267C86.3097 16.5095 85.5343 15.9668 84.7784 15.5985C84.0224 15.2108 83.2179 14.9006 82.365 14.668C81.5315 14.4354 80.8337 14.29 80.2715 14.2319C79.7094 14.1737 79.1666 14.1446 78.6432 14.1446V13.534C79.9032 13.534 81.0469 13.408 82.0742 13.156C83.121 12.904 84.0611 12.5164 84.8947 11.993C85.7476 11.4502 86.4066 10.7136 86.8719 9.78316C87.3371 8.83333 87.5697 7.71874 87.5697 6.43937C87.5697 5.58647 87.4049 4.83048 87.0754 4.17141C86.7652 3.51235 86.3291 2.97928 85.767 2.57221C85.2048 2.14575 84.6039 1.79684 83.9642 1.52546C83.3439 1.23469 82.6461 1.03116 81.8707 0.914851C81.1147 0.779161 80.4557 0.691932 79.8935 0.653164C79.3314 0.595011 78.7692 0.565934 78.2071 0.565934C77.0246 0.565934 75.9197 0.769469 74.8924 1.17654C73.8844 1.58361 73.0121 2.10699 72.2755 2.74667C71.5583 3.38635 70.9186 4.15203 70.3564 5.0437C69.7943 5.916 69.3388 6.79798 68.9899 7.68966C68.6603 8.56195 68.3986 9.46332 68.2048 10.3938H67.8559V3.58988C69.1546 2.34929 70.6278 1.48669 72.2755 1.00208C73.9425 0.498089 75.9197 0.246094 78.2071 0.246094C79.0406 0.246094 79.8451 0.27517 80.6204 0.333323C81.4152 0.391475 82.3165 0.49809 83.3245 0.653164C84.3325 0.788854 85.2436 1.01177 86.0577 1.32192C86.8719 1.63207 87.6375 2.01976 88.3548 2.48498C89.072 2.93082 89.6341 3.52204 90.0412 4.25864C90.4483 4.99525 90.6518 5.82877 90.6518 6.75922C90.6518 7.67028 90.4192 8.53288 89.954 9.34702C89.4887 10.1418 88.9169 10.8105 88.2385 11.3533C87.56 11.8767 86.8234 12.3322 86.0286 12.7199C85.2339 13.1076 84.507 13.3886 83.8479 13.5631C83.1888 13.7376 82.6461 13.8248 82.2196 13.8248Z" fill="white"/>
<path d="M124.875 41.7091L124.933 41.9999H115.396L115.338 41.7091C116.617 41.7091 117.334 41.3893 117.489 40.7496C117.664 40.1099 117.499 38.9565 116.995 37.2895L113.012 21.3847H102.719L98.7351 37.2895C98.2311 38.9565 98.0566 40.1099 98.2117 40.7496C98.3861 41.3893 99.113 41.7091 100.392 41.7091L100.334 41.9999H94.1991L94.2573 41.7091C94.9357 41.7091 95.4785 41.6509 95.8856 41.5346C96.2926 41.4183 96.6319 41.1566 96.9032 40.7496C97.194 40.3231 97.4072 39.8967 97.5429 39.4702C97.6786 39.0244 97.8725 38.2975 98.1245 37.2895L106.295 5.01463C106.508 4.1811 106.644 3.58988 106.702 3.24097C106.78 2.89205 106.828 2.50436 106.847 2.07791C106.886 1.63207 106.818 1.33161 106.644 1.17654C106.489 1.02147 106.246 0.895467 105.917 0.798546C105.607 0.68224 105.171 0.624087 104.608 0.624087L104.725 0.304246H111.703L121.008 37.2895C121.26 38.2975 121.453 39.0244 121.589 39.4702C121.725 39.8967 121.928 40.3231 122.2 40.7496C122.491 41.1566 122.839 41.4183 123.246 41.5346C123.654 41.6509 124.196 41.7091 124.875 41.7091ZM102.893 20.8613H112.837L108.01 1.69991C107.623 2.32021 107.245 3.42512 106.876 5.01463L102.893 20.8613Z" fill="white"/>
<path d="M158.255 0.624087C157.789 0.624087 157.392 0.653163 157.062 0.711316C156.752 0.750085 156.491 0.866391 156.277 1.06023C156.083 1.23469 155.928 1.39946 155.812 1.55453C155.696 1.70961 155.609 2.00037 155.55 2.42683C155.512 2.85328 155.483 3.22158 155.463 3.53173C155.463 3.8225 155.463 4.31679 155.463 5.01463V37.2895C155.463 37.8904 155.463 38.3265 155.463 38.5979C155.483 38.8693 155.502 39.2085 155.521 39.6156C155.56 40.0227 155.609 40.3037 155.667 40.4588C155.744 40.6139 155.841 40.798 155.957 41.0113C156.093 41.2245 156.268 41.3699 156.481 41.4474C156.694 41.5056 156.936 41.5637 157.208 41.6219C157.499 41.68 157.847 41.7091 158.255 41.7091V41.9999H148.659V41.7091C149.977 41.7091 150.772 41.4474 151.044 40.924C151.315 40.3813 151.451 39.1698 151.451 37.2895V21.3847H134.063V37.2895C134.063 37.9679 134.063 38.4719 134.063 38.8014C134.082 39.1116 134.121 39.4799 134.179 39.9064C134.237 40.3134 134.315 40.6042 134.412 40.7786C134.528 40.9337 134.683 41.1082 134.877 41.302C135.09 41.4765 135.352 41.5928 135.662 41.6509C135.972 41.6897 136.36 41.7091 136.825 41.7091V41.9999H127.288V41.7091C127.676 41.7091 128.005 41.68 128.277 41.6219C128.567 41.5637 128.81 41.5056 129.004 41.4474C129.217 41.3699 129.382 41.2245 129.498 41.0113C129.634 40.798 129.731 40.6236 129.789 40.4879C129.866 40.3328 129.915 40.0517 129.934 39.6447C129.973 39.2376 129.992 38.8984 129.992 38.627C130.012 38.3556 130.021 37.9098 130.021 37.2895V5.01463C130.021 4.41372 130.012 3.97757 129.992 3.70619C129.992 3.43481 129.973 3.10528 129.934 2.71759C129.915 2.31052 129.866 2.02945 129.789 1.87437C129.731 1.7193 129.634 1.53515 129.498 1.32192C129.382 1.10869 129.217 0.973004 129.004 0.914851C128.81 0.837314 128.567 0.769469 128.277 0.711316C128.005 0.653163 127.676 0.624087 127.288 0.624087V0.304246H136.825V0.624087C136.147 0.624087 135.614 0.691932 135.226 0.827622C134.858 0.943928 134.586 1.21531 134.412 1.64176C134.237 2.06822 134.131 2.49467 134.092 2.92113C134.073 3.3282 134.063 4.02603 134.063 5.01463V20.8613H151.451V5.01463C151.451 4.41372 151.441 3.97757 151.422 3.70619C151.422 3.43481 151.402 3.10528 151.363 2.71759C151.344 2.31052 151.296 2.02945 151.218 1.87437C151.16 1.7193 151.063 1.53515 150.927 1.32192C150.811 1.10869 150.646 0.973004 150.433 0.914851C150.22 0.837314 149.968 0.769469 149.677 0.711316C149.406 0.653163 149.066 0.624087 148.659 0.624087V0.304246H158.255V0.624087Z" fill="white"/>
<path d="M169.652 13.3596C172.832 13.282 175.574 13.4177 177.881 13.7666C180.188 14.1156 182.088 14.6486 183.58 15.3658C185.092 16.0637 186.294 17.0135 187.186 18.2153C188.077 19.4172 188.698 20.7547 189.046 22.2279C189.415 23.6817 189.599 25.4263 189.599 27.4616C189.599 29.8265 189.143 31.9491 188.232 33.8294C187.321 35.6903 186.071 37.2119 184.481 38.3944C182.911 39.5574 181.109 40.4491 179.073 41.0694C177.038 41.6897 174.857 41.9999 172.531 41.9999H160.61V41.7091C161.172 41.7091 161.618 41.6606 161.947 41.5637C162.296 41.4474 162.568 41.3117 162.761 41.1566C162.975 41.0016 163.12 40.7108 163.198 40.2843C163.294 39.8579 163.353 39.4605 163.372 39.0922C163.391 38.7045 163.401 38.1036 163.401 37.2895V5.07278C163.401 4.39433 163.391 3.89034 163.372 3.56081C163.372 3.23127 163.343 2.86297 163.285 2.4559C163.227 2.04883 163.139 1.76776 163.023 1.61269C162.926 1.43823 162.771 1.26377 162.558 1.08931C162.345 0.914851 162.083 0.808238 161.773 0.769469C161.463 0.711316 161.075 0.68224 160.61 0.68224V0.362399H167.385V13.3596H169.652ZM172.531 41.6509C174.14 41.6509 175.574 41.5249 176.834 41.2729C178.114 41.021 179.316 40.5751 180.44 39.9354C181.564 39.2764 182.495 38.4235 183.231 37.3767C183.968 36.33 184.549 34.9731 184.976 33.306C185.402 31.639 185.615 29.6908 185.615 27.4616C185.615 25.2324 185.393 23.3037 184.947 21.6754C184.52 20.0278 183.939 18.6999 183.202 17.692C182.485 16.684 181.554 15.8795 180.411 15.2786C179.267 14.6777 178.075 14.2706 176.834 14.0574C175.594 13.8248 174.159 13.7085 172.531 13.7085H167.385V41.6509H172.531Z" fill="white"/>
</svg>
